<svg width="120" height="90" viewBox="0 0 120 90" fill="none" xmlns="http://www.w3.org/2000/svg">
<path fill-rule="evenodd" clip-rule="evenodd" d="M4.28463 2.04142C5.10768 -0.252686 7.3862 0.241398 4.28463 2.04142V2.04142ZM11.249 0.441457C9.84818 -0.120458 8.61441 0.992814 7.50542 1.77485C7.25771 1.94957 6.24349 2.52548 6.52121 2.96255C7.02858 3.75989 10.6365 0.721494 11.25 0.441988L11.249 0.441457ZM13.9287 0.372316C12.3864 0.939773 9.77013 2.61363 8.67176 3.84461C7.99022 4.61002 8.6914 5.54251 9.64374 5.35353C11.571 4.97135 13.4969 2.58223 15.25 1.67219C15.7617 1.40667 17.3262 1.11265 17.5102 0.496889C17.6656 -0.0227967 14.2977 0.23639 13.9281 0.372316H13.9287ZM20.3553 0.401602C17.575 1.42408 15.0217 3.75355 12.5889 5.39522C12.3383 5.5644 9.35675 7.44336 11.049 7.54814C13.4651 7.69753 17.6464 3.91852 19.5543 2.60096C20.1764 2.17128 21.3597 1.40192 21.528 0.603258C21.651 0.0226039 20.589 0.315824 20.3564 0.401602H20.3553ZM23.4221 0.430631C22.1331 1.0836 21.2352 2.61838 20.0901 3.50097C17.6764 5.3617 15.0047 6.90255 12.6099 8.8005C12.0383 9.25341 11.3411 10.8307 12.7121 10.8043C13.7038 10.7853 15.0459 9.40544 15.7622 8.79628C18.0439 6.85584 20.6976 4.97768 22.7122 2.76486C23.0159 2.43125 25.1813 -0.460672 23.4221 0.430631ZM25.9829 0.308701C24.5906 1.03188 23.5785 3.53661 22.5008 4.70874C20.6245 6.74921 17.9563 8.71577 15.8044 10.5308C14.9893 11.2184 13.5307 11.8547 12.9917 12.7975C12.6904 13.3254 13.1364 14.6696 13.8846 14.531C14.2725 14.4592 15.9693 13.3037 16.2061 12.8419C16.3266 12.607 15.9263 11.9991 16.1615 11.9086C17.0061 11.5829 17.3297 11.9405 18.1703 11.0196C20.4212 8.55503 18.6776 10.0642 20.9384 8.21959C22.7438 6.74684 24.3442 5.66128 25.8937 3.64193C26.6105 2.70786 28.4124 -0.953424 25.9829 0.308443V0.308701ZM96.5978 0.403987C96.4119 0.815195 99.051 2.07653 99.3776 2.27791C102.051 3.92327 105.373 4.32286 107.733 6.52723C108.163 6.92815 109.342 8.4434 109.952 7.53256C110.725 6.3826 108.662 5.58367 107.948 5.1854C105.293 3.70368 102.333 2.9549 99.6431 1.56661C99.3112 1.39452 96.8766 -0.207282 96.5978 0.405308V0.403987ZM99.5449 0.39474C99.3431 0.91205 101.709 1.76931 102.054 1.90102C104.571 2.85698 106.851 4.08692 109.286 5.19253C110.021 5.52562 111.216 5.75497 111.564 4.75018C111.859 3.90744 110.09 3.4305 109.554 3.17791C107.252 2.09051 104.741 1.52965 102.322 0.753686C101.942 0.631221 99.7838 -0.213627 99.5449 0.39474ZM105.707 0.369932C105.564 0.673191 106.974 1.05378 107.143 1.11105C108.787 1.66188 110.332 2.56718 111.965 3.06918C112.337 3.18346 113.253 3.3706 113.404 2.80684C113.539 2.30827 112.268 1.9707 111.965 1.83503C111.206 1.49509 106.31 -0.90434 105.707 0.369932ZM110.797 0.369932C110.728 0.510344 115.122 2.91795 115.547 1.52992C115.708 0.997571 111.163 -0.402602 110.797 0.369932ZM95.4509 1.52042C94.9942 2.10345 97.9439 3.40887 98.305 3.59864C101.079 5.05793 104.024 6.3929 106.607 8.17102C107.04 8.46926 108.752 10.3047 109.236 9.60392C109.897 8.64663 107.993 7.6326 107.412 7.22297C104.746 5.34377 101.658 4.50208 98.8413 2.91769C98.3793 2.65877 95.9287 0.909678 95.4509 1.52042ZM14.7313 19.1082C12.7467 18.4787 13.6902 22.112 14.4634 21.728C16.0489 20.9406 15.1306 18.0255 16.2993 16.8045C16.9705 16.1033 17.9329 16.6823 18.7108 16.1516C20.5629 14.8881 21.4516 12.8754 23.1141 11.424C24.7371 10.0075 26.3846 9.72981 27.84 7.90418C28.7427 6.77402 30.9464 4.07133 28.7664 2.82055C27.8546 2.29796 25.4638 6.19469 24.8635 6.83737C22.1906 9.6386 19.3419 12.2688 16.3346 14.7121C14.7469 16.0149 13.1752 17.2525 14.7305 19.1082H14.7313ZM94.4847 3.20617C93.0059 3.95231 95.706 5.40077 96.16 5.64517C99.1708 7.26414 102.383 8.77041 105.243 10.6599C105.888 11.0859 107.906 13.3457 108.742 12.8864C110.308 12.0252 107.072 9.68204 106.607 9.31729C103.952 7.24382 100.711 6.21369 97.7663 4.6256C97.0582 4.24343 95.3377 2.77675 94.4855 3.20617H94.4847ZM93.4121 5.57523C92.0023 6.33615 94.9201 7.72445 95.39 8.01821C98.4964 9.9568 101.908 11.2604 104.998 13.2787C105.569 13.6505 108.038 15.7834 108.713 15.298C109.557 14.691 106.432 12.6442 106.071 12.3947C103.082 10.3281 99.792 9.0201 96.6963 7.13165C96.0174 6.71754 94.2757 5.11176 93.4129 5.57523H93.4121ZM30.5949 6.9337C29.3951 7.35969 28.597 9.3867 27.7686 10.2804C25.5326 12.6927 22.8667 14.7327 20.6391 17.2416C20.1408 17.803 19.2567 20.2909 20.9678 20.0066C21.9518 19.8432 23.1139 17.9579 23.7203 17.2419C26.1297 14.3967 29.5939 12.4496 31.5852 9.31754C31.9781 8.69994 31.6993 6.54202 30.5949 6.9337ZM92.2811 8.23885C90.3164 9.20432 93.728 10.5158 94.2882 10.8164C97.6627 12.6223 101.226 13.9572 104.73 15.4881C105.259 15.7185 108.256 17.7196 108.657 17.21C109.079 16.6744 105.673 14.7554 105.267 14.4856C102.266 12.4945 99.0433 11.3775 95.8918 9.69207C95.0723 9.2542 93.2642 7.75506 92.2818 8.23885H92.2811ZM32.4082 10.1748C31.325 10.5971 30.5869 12.2161 29.7293 12.9749C27.3953 15.0415 25.1667 17.0231 23.0342 19.375C22.5377 19.9221 20.1435 23.0194 22.4985 23.0194C23.1813 23.0194 24.6251 20.6999 25.0879 20.175C26.2547 18.8498 27.5103 16.8133 28.7932 15.7303C30.4924 14.2977 31.4418 16.274 33.6136 12.352C33.9242 11.7938 33.1675 9.87866 32.4082 10.174V10.1748ZM91.0412 11.1347C90.0747 11.9284 93.3961 13.0836 93.8262 13.2802C97.3521 14.8981 101.284 15.7224 104.73 17.4929C105.333 17.8019 108.086 19.8171 108.702 19.3003C109.454 18.6708 105.92 17.0096 105.535 16.8349C102.006 15.2326 98.292 14.1013 94.8192 12.3744C94.0891 12.0107 91.8483 10.4712 91.0412 11.1339V11.1347ZM34.4977 13.9417C33.6083 14.0823 32.8649 15.3685 32.1321 15.8573C29.518 17.5658 27.1188 19.5787 24.9854 21.8533C24.7316 22.127 22.3511 25.2066 23.7593 25.087C25.0815 24.9749 26.2619 22.9062 26.9984 22.0365C27.9276 20.9396 29.5512 19.2531 30.8707 18.5275C32.2991 17.742 33.9744 17.704 35.1399 16.2709C35.6072 15.6942 35.647 13.7603 34.4974 13.9417H34.4977ZM89.8621 13.7862C88.4231 14.7039 92.233 15.4727 92.6764 15.5999C96.5766 16.7169 100.609 17.84 104.196 19.7627C104.927 20.1547 107.985 22.4284 108.736 21.9594C110.016 21.1621 105.681 19.2441 105.266 19.0417C101.624 17.2588 97.7448 16.406 94.0171 14.877C93.0332 14.4743 90.9198 13.1156 89.8631 13.7878L89.8621 13.7862ZM88.8505 16.1851C88.0354 16.8185 89.7612 17.6449 90.3772 17.2242C91.4259 16.5039 89.5222 15.6649 88.8505 16.1851ZM36.4356 17.1413C35.6417 17.2944 34.7205 18.542 34.0169 18.9828C31.3088 20.6807 28.7743 22.4123 26.52 24.7067C26.2194 25.0126 23.4351 28.3833 25.4049 28.3846C26.1076 28.3846 27.4051 26.1428 27.9784 25.6342C29.8861 23.9193 31.9073 22.3334 34.0283 20.8871C34.9469 20.2821 36.3381 20.1776 37.1187 19.4059C37.6128 18.9187 37.3261 16.9716 36.4366 17.1429L36.4356 17.1413ZM93.0348 17.2934C92.2808 18.1525 94.3278 19.0599 94.8216 19.2145C98.4784 20.3107 101.986 21.8485 105.266 23.7935C105.877 24.1527 108.099 26.1689 108.742 25.7263C110.298 24.6568 107.603 22.5733 106.873 22.1542C103.591 20.2639 100.041 19.0446 96.4279 17.9653C95.8634 17.7977 93.4952 16.7721 93.0358 17.2949L93.0348 17.2934ZM87.0531 19.9063C87.616 19.7743 88.3116 20.0478 88.8266 19.8361C89.5382 19.5458 87.6637 18.0751 87.0531 19.9063ZM26.7218 31.0134C25.5113 30.4961 27.7747 28.0674 28.1602 27.6417C30.2452 25.3386 33.0648 23.3902 35.6242 21.638C35.9906 21.3872 38.0509 19.5825 38.2978 20.5007C38.5288 21.3561 36.9729 22.3054 36.426 22.7206C30.1815 27.4696 28.7658 31.8855 26.7218 31.0134ZM93.5005 20.4529C92.4969 21.5195 95.0722 22.3086 95.6245 22.5095C99.1689 23.7967 102.53 25.4325 105.49 27.7955C105.968 28.1769 108.329 30.7854 108.857 30.1079C109.792 28.9035 108.217 27.0874 107.41 26.3888C104.508 23.9633 101.134 22.1592 97.4989 21.0892C96.7263 20.8681 94.1536 19.7598 93.5005 20.4529ZM86.2683 21.7815C85.5381 22.5733 87.1869 23.4855 87.7922 22.6644C88.4268 21.8066 86.8232 21.1808 86.2683 21.7815ZM34.2861 29.5085C33.9595 28.448 37.1216 25.6286 38.1677 24.6196C38.4996 24.2995 39.8457 23.0511 39.4182 22.5082C38.9377 21.8964 36.7632 24.121 36.4287 24.4349C33.7737 26.9132 30.9275 29.2398 28.7557 32.1758C28.2247 32.8955 27.6016 35.8927 29.4628 35.4422C31.8257 34.8703 31.7896 29.2569 34.2853 29.509L34.2861 29.5085ZM14.842 23.5441C13.4831 23.846 13.3841 27.8438 14.0107 27.7644C15.6387 27.5585 15.4054 23.4187 14.842 23.5441ZM93.758 23.6729C92.866 24.4367 93.8244 25.782 94.5704 26.1312C98.4892 27.9676 101.837 29.2802 105.326 31.948C105.944 32.4194 107.569 35.5573 108.743 34.6C110.24 33.3769 107.949 31.0369 107.142 30.3428C104.277 27.8705 101.152 25.4317 97.4989 24.2667C96.7343 24.0229 94.4669 23.0658 93.758 23.6729ZM39.9837 24.4433C38.7651 24.8772 37.6951 26.4043 36.9331 27.3748C34.91 29.9503 33.1099 32.697 31.2249 35.3749C30.7576 36.0382 29.2018 39.0151 31.278 39.0541C32.8312 39.0834 32.8099 35.9767 33.248 35.5069C35.4915 33.0985 37.0154 30.2736 38.8713 27.3748C39.0253 27.1352 41.3325 23.9614 39.9837 24.4433ZM85.0311 24.7115C83.8894 25.4505 85.6125 26.1958 86.3373 25.7477C87.5002 25.0295 85.8647 24.172 85.0311 24.7115ZM41.0749 26.0884C39.9227 26.3787 38.9164 28.5847 38.3562 29.5082C36.3358 32.8414 34.6578 36.337 32.5816 39.6417C32.2948 40.0964 31.5992 42.4098 32.948 42.1401C33.848 41.9595 34.695 39.8982 35.133 39.184C37.1243 35.9458 38.1996 32.2138 40.2359 28.9745C40.3979 28.7185 42.2458 25.7933 41.0749 26.0882V26.0884ZM84.0142 26.8715C82.7584 27.6519 84.3089 28.851 85.3072 28.1674C86.5178 27.3376 84.9169 26.3112 84.0142 26.8715ZM104.731 36.708C104.211 38.5049 108.809 43.3871 109.019 40.9745C109.465 35.7658 102.92 32.1855 99.1078 29.2857C98.3379 28.7006 94.6076 26.6004 93.6147 27.2859C92.8235 27.8343 93.6678 29.9289 94.2864 30.2633C95.8369 31.1034 97.621 31.6769 99.0176 32.3967C99.4928 32.6421 98.3565 32.6699 98.4812 33.0191C98.8237 33.9647 100.305 33.7599 100.669 33.7747C102.442 33.8454 102.445 38.3085 104.731 36.708ZM42.0148 27.8095C41.051 27.9943 40.4191 29.8326 39.9811 30.5745C38.165 33.6583 37.0048 37.0673 35.2419 40.1745C35.0799 40.4628 33.0913 43.8527 33.7896 43.8527C34.5038 43.8527 35.6322 41.0049 35.9348 40.4414C37.7323 37.0987 39.2377 33.7625 41.3324 30.5745C41.5024 30.3143 43.3131 27.5604 42.0148 27.8095ZM13.6594 34.5747C14.7897 33.3719 15.2559 31.9427 15.2654 30.3082C15.267 30.0443 15.3902 28.9922 15.0371 28.8763C13.3621 28.326 13.6594 33.8684 13.6594 34.5747ZM35.3558 42.5748C38.5046 40.7314 39.4365 35.2519 41.7145 32.4413C41.9349 32.1705 44.0297 29.6837 43.2146 29.4095C42.6464 29.2192 41.1437 31.7635 40.8437 32.1747C38.6082 35.2583 37.0497 39.1708 35.3558 42.5737V42.5748ZM82.8723 29.5182C82.7432 29.5831 82.6289 29.6735 82.5362 29.7839C82.4435 29.8943 82.3745 30.0224 82.3334 30.1602C82.2923 30.298 82.2799 30.4428 82.2971 30.5855C82.3142 30.7283 82.3605 30.8661 82.4331 30.9904C82.5058 31.1147 82.6032 31.223 82.7194 31.3086C82.8356 31.3942 82.9681 31.4553 83.1089 31.4881C83.2497 31.521 83.3958 31.5249 83.5382 31.4996C83.6805 31.4744 83.8162 31.4205 83.9369 31.3412C85.3626 30.5053 84.3033 28.6428 82.8723 29.5182ZM39.1073 38.8404C40.6047 36.9213 41.5074 34.6346 43.05 32.7068C43.2172 32.4986 44.4332 30.9121 43.8359 30.6711C43.3978 30.4927 42.4261 32.1615 42.211 32.4394C40.8546 34.1904 39.2881 36.593 39.1076 38.8417L39.1073 38.8404ZM93.7578 31.4381C92.5258 32.28 94.7321 34.8317 95.3268 35.4092C99.0226 39.0148 102.894 41.864 105.681 46.3176C105.957 46.7568 108.546 51.0125 108.735 50.9385C109.743 50.5479 108.878 45.4564 108.535 44.7068C106.573 40.411 101.627 36.8527 98.035 33.9272C97.3739 33.3875 94.7242 30.7761 93.7578 31.4381ZM44.4067 31.7379C43.5305 31.9422 42.5243 33.8665 42.0676 34.5736C40.233 37.4178 37.9577 40.8368 36.6037 43.9068C36.4497 44.255 35.6797 47.7075 35.9903 47.5425C36.5479 47.2493 37.1081 44.5601 37.5116 43.9068C39.5666 40.5863 41.4198 37.0775 43.8916 34.0402C44.0376 33.861 45.5244 31.4766 44.4067 31.7379ZM81.8023 32.0019C80.3686 32.6171 81.6961 34.5786 82.8457 33.9769C84.0938 33.3263 83.077 31.455 81.8026 32.0024L81.8023 32.0019ZM36.6968 49.7759C37.5571 48.48 37.6898 46.8808 38.4093 45.5092C39.8908 42.6869 41.7865 39.8636 43.6078 37.2425C44.099 36.5362 46.4646 34.3247 45.6123 33.4432C44.7919 32.5941 42.6918 36.4169 42.336 36.9759C39.9359 40.7454 36.734 45.1719 36.6968 49.7759ZM80.5308 34.6296C79.283 35.3393 80.2866 37.2161 81.5902 36.6215C83.0955 35.9352 81.8636 33.8734 80.5308 34.6296ZM46.0371 35.011C45.0707 35.1786 44.1972 37.0321 43.7193 37.7759C41.9192 40.5636 39.5855 43.9559 38.5606 47.1094C38.4305 47.5135 37.4455 51.6509 37.95 51.4741C38.9589 51.1178 39.1739 48.1725 39.5111 47.3C40.7802 43.9966 43.5865 40.1785 45.8778 37.4853C46.1778 37.1327 47.6461 34.7325 46.0371 35.011ZM13.6597 41.5082L15.2665 36.7083C15.2665 36.7083 15.5941 35.2574 14.9845 35.1635C14.3946 35.0727 14.1596 36.4428 14.1596 36.4428L13.6597 41.5082ZM93.758 36.0662C92.327 36.5676 94.7006 38.9766 95.0908 39.2751C96.7529 40.5517 98.7282 41.7774 100.09 43.379C102.158 45.8106 103.396 49.1681 105.018 51.9085C105.44 52.6211 107.737 56.5775 108.753 56.274C110.439 55.7698 107.394 51.1563 107.083 50.5756C105.607 47.8091 103.951 44.8644 101.739 42.5996C100.547 41.3791 99.0547 40.6161 97.8972 39.3294C97.3051 38.6696 94.7775 35.7093 93.758 36.0662ZM47.2 36.8764C46.2469 37.0562 45.368 38.9214 44.8583 39.6417C42.8511 42.4721 40.8652 45.9043 39.9094 49.2415C39.7474 49.811 37.8916 53.9857 39.2801 53.9857C39.9651 53.9857 40.8599 50.6258 41.1121 50.0414C42.7298 46.2647 44.8045 42.698 47.2903 39.4202C47.5929 39.0222 48.6576 36.6014 47.2 36.8764ZM79.2352 37.5194C77.7245 38.6158 78.7334 40.9165 80.406 39.634C81.7176 38.6292 80.6715 36.4784 79.2352 37.5194ZM48.4505 39.2727C47.3779 39.4221 46.3132 41.4874 45.8274 42.3079C43.8706 45.6071 41.9882 49.2977 40.8705 52.9745C40.7245 53.4602 39.5297 57.7517 41.1546 57.34C41.7466 57.1896 42.5007 53.9009 42.8033 53.2649C44.5636 49.551 46.3982 45.7892 48.5779 42.3079C48.8992 41.7954 50.1603 39.0333 48.4505 39.2727ZM93.7979 39.1792C93.5058 39.3854 97.1803 42.9158 97.5653 43.3758C100.741 47.1701 102.934 51.9753 105.536 56.1745C105.979 56.8924 107.683 60.2892 108.743 60.0068C110.251 59.6082 107.123 55.7548 106.823 55.3747C103.595 51.3022 102.026 45.3785 98.0352 42.021C97.4803 41.5541 94.5439 38.6472 93.7979 39.1792ZM93.758 40.8526C92.5394 41.3541 95.6723 44.7725 96.0015 45.2415C99.0494 49.57 101.404 54.2839 104.543 58.5755C105.018 59.2221 107.808 63.0359 108.727 62.4817C109.316 62.128 106.059 58.1083 105.698 57.5092C103.056 53.1041 100.518 48.3557 97.5573 44.175C97.0555 43.4671 94.8652 40.3952 93.758 40.8526ZM77.7829 41.0276C76.2616 41.8175 76.7581 44.0974 78.6458 43.214C80.2574 42.4591 79.5511 40.1112 77.7829 41.0276ZM44.4627 63.6404C43.1352 58.0898 46.9664 52.5446 49.093 47.6415C49.6161 46.4308 52.0507 43.0517 50.301 42.0197C49.1222 41.3271 47.1283 46.8119 46.7301 47.6415C44.4574 52.3862 39.6492 58.9159 44.4627 63.6404ZM14.9782 42.1393C13.6159 42.631 13.6756 45.4245 13.7008 46.5058C13.7067 46.7618 13.5434 47.9178 13.991 47.9205C14.8653 47.926 15.2421 44.0224 15.2559 43.3589C15.2591 43.2074 15.3435 42.007 14.9782 42.1393ZM93.7102 43.5431C93.2828 43.688 93.6306 44.734 93.7288 44.9742C94.2943 46.3559 95.3192 47.7059 96.0785 48.9989C98.7866 53.6082 101.681 59.0268 105.161 63.0835C105.671 63.6799 107.973 66.8867 108.745 66.673C110.36 66.2295 107.463 62.896 107.142 62.5741C103.112 58.5359 99.9123 53.4684 97.2467 48.4415C96.875 47.7394 94.6315 43.2312 93.7102 43.5431ZM47.4097 69.241C47.269 65.9709 46.6265 62.9356 47.2664 59.6418C47.8478 56.6514 49.7223 53.2255 50.8081 50.3091C51.1347 49.4275 53.5454 45.0676 51.6577 44.6099C51.1878 44.4957 50.848 45.4809 50.7073 45.7763C49.9692 47.339 49.5019 49.011 48.7638 50.5756C46.0663 56.3083 42.429 63.5348 47.4097 69.241ZM76.397 44.6395C74.6898 45.3949 76.2642 46.4422 77.4829 45.8436C78.8582 45.1684 77.4484 44.1739 76.397 44.6395ZM93.7076 47.0112C92.1544 47.5525 95.274 51.477 95.6245 51.9098C99.5884 56.8163 101.641 62.5728 105.267 67.6429C106.224 68.9104 107.084 70.2469 107.84 71.6415C107.957 71.8711 108.262 72.9374 108.668 72.8081C109.898 72.4175 108.676 68.279 108.23 67.6429C106.807 65.6185 104.776 64.0666 103.366 62.0422C101.155 58.8671 99.6548 55.2539 97.2626 52.1764C96.2935 50.928 95.5501 49.5334 94.7457 48.1775C94.605 47.9418 94.1085 46.8711 93.7076 47.0112ZM75.3297 47.0397C73.7871 47.7357 75.6695 48.1765 76.5404 47.7642C77.9157 47.1136 76.0465 46.7167 75.3297 47.0397ZM53.0808 47.2873C52.5206 47.4457 52.4038 48.5177 52.2764 48.9765C51.7693 50.7963 51.0869 52.5171 50.5347 54.3079C49.8869 56.4247 48.4903 58.2616 48.0363 60.4417C46.4778 67.8873 49.7886 74.8156 53.572 80.9758C54.9499 83.2192 56.0571 85.6184 57.366 87.9093C57.5545 88.2366 58.1917 90.0155 58.659 89.8651C59.2484 89.675 59.6997 87.8671 59.5086 87.3762C58.6988 85.3043 56.0173 83.1638 54.7322 81.2424C51.6816 76.6869 49.7833 70.4686 50.0887 64.9761C50.2009 63.1499 50.5921 61.3512 51.2489 59.642C51.6604 58.6285 52.7596 57.3379 52.6321 56.1739C52.5896 55.7807 51.9498 55.5352 51.9631 55.2422C51.9578 55.361 52.9003 55.0707 53.0357 54.8411C53.7233 53.6718 54.5305 50.5521 54.3287 49.2417C54.265 48.8242 53.6729 47.1173 53.0808 47.2862V47.2873ZM75.5208 48.5956C74.7137 48.7154 72.8499 50.6524 74.0181 50.4994C74.9129 50.3832 77.4563 48.3087 75.5208 48.5956ZM15.267 49.5086C14.9415 49.8802 12.8244 52.7243 13.9101 53.0717C15.0698 53.4438 15.2623 50.0784 15.267 49.5086ZM93.4819 50.3093C93.4819 52.9566 95.6457 54.2129 96.7847 56.4432C99.461 61.6743 101.574 67.1457 104.054 72.4349C104.476 73.3323 107.291 73.3138 107.291 74.2639C107.291 74.607 104.981 75.6945 104.726 75.4728C103.855 74.7206 106.231 74.5833 106.056 74.1452C105.735 73.3402 104.556 74.483 104.152 74.1373C103.212 73.3375 102.814 71.1416 102.262 70.041C100.425 66.3829 98.4972 62.7591 96.636 59.1089C96.336 58.5177 94.4085 54.5798 93.6677 54.8569C92.3376 55.3531 95.0988 58.6523 95.3351 59.1089C97.1272 62.5796 98.237 66.4621 99.8433 70.041C99.9627 70.3076 101.155 73.3903 100.565 73.3903C100.072 73.3903 98.5317 69.0143 98.245 68.4416C97.6317 67.2196 96.9281 66.0239 96.5325 64.7095C95.8608 62.4714 95.1492 59.4705 93.4819 57.776C93.6916 61.5872 96.0785 65.5198 96.421 69.5079C96.4555 69.9222 97.1113 73.1238 96.3254 73.1238C96.259 73.1238 95.8634 70.3445 95.7971 70.041C95.1731 67.2776 95.4386 62.6034 93.4819 60.4417C93.4846 63.4664 93.997 66.4832 93.7049 69.5079C93.6067 70.5266 93.0332 72.4375 93.758 73.327C94.8731 74.6994 98.0883 74.6968 99.6415 74.5754V74.842C98.4574 74.9951 96.7396 75.581 98.0326 77.0801C98.4255 77.5367 99.1769 77.2992 99.5194 77.7452C100.847 79.4714 101.221 81.1869 103.125 82.7652C103.94 83.4409 104.975 84.4148 106.072 84.5626C106.621 84.6365 107.694 83.9978 108.135 84.3093C108.456 84.5362 108.549 85.4099 108.791 85.7556C109.446 86.6979 111.639 88.973 112.585 89.4876C114.332 90.4378 118.046 89.7753 120 89.7753C117.263 88.4557 114.249 88.1812 112.088 85.7503C108.979 82.2532 110.246 78.64 108.613 74.8868C106.81 70.7431 103.99 67.2803 101.752 63.374C99.1795 58.8872 97.2626 53.9991 93.4819 50.3093ZM67.7683 64.1764L68.0364 67.9084C70.3038 65.9817 71.7003 60.3019 72.8579 57.5094C73.1526 56.7942 74.2385 55.1947 74.0394 54.4188C73.9172 53.9411 72.7676 54.7724 72.7676 54.4425C72.7676 54.7645 77.2731 50.1932 74.9925 50.8055C72.1623 51.5657 71.9711 53.685 71.1746 56.0499C70.4525 58.1957 68.8568 60.8033 67.7444 62.8409C67.1311 63.9679 64.8079 64.5723 64.5823 65.5383C64.2345 67.0401 65.0363 69.4287 65.5354 70.8407C65.623 71.0862 65.9416 72.3108 66.3611 72.1604C66.7063 72.039 66.8948 71.1337 67.0302 70.8407C68.0497 68.6422 66.7036 66.0846 67.7683 64.1764ZM55.3721 51.5445C54.618 51.7768 53.7685 56.1555 53.418 56.9763C50.1178 64.6752 50.9011 71.6668 54.5782 79.1097C55.5771 81.1118 56.8086 82.9907 58.2475 84.7078C58.574 85.1063 59.482 86.492 60.1378 86.2175C60.9476 85.877 60.7246 84.5019 60.475 83.9081C59.6705 82.0025 58.1306 80.506 57.3235 78.574C55.4916 74.1927 53.487 69.3284 53.9039 64.443C54.1428 61.6374 55.2924 59.101 56.0916 56.4432C56.2509 55.9126 57.127 50.9982 55.3721 51.5445ZM13.6597 59.642C14.0914 59.1115 16.32 54.8384 14.993 54.4768C13.2739 54.0094 13.6597 58.8658 13.6597 59.6418V59.642ZM57.5226 55.5431C56.8403 55.7437 55.9429 59.4599 55.7199 60.1752C53.9596 65.8365 55.4305 72.2105 57.6633 77.5077C58.0961 78.5318 59.9519 83.5412 61.4414 83.206C63.2866 82.7943 59.8962 78.1992 59.5988 77.5077C57.2253 71.9651 57.2226 65.7732 58.3218 59.9086C58.4227 59.3778 59.0413 55.0995 57.5226 55.5429V55.5431ZM59.5643 59.2778C58.643 59.5153 58.7598 62.6588 58.6935 63.374C58.3218 67.399 58.189 72.3742 59.8218 76.1748C60.159 76.9587 61.5396 80.5033 62.6521 80.2737C63.9265 80.0098 63.4433 77.9194 63.045 77.2411C61.3033 74.2983 60.8626 71.5481 60.7962 68.175C60.7803 67.3568 60.4484 65.3509 61.2157 64.765C61.6166 64.4562 61.3671 66.9028 61.3724 67.1087C61.4361 69.6266 61.598 72.1736 62.3813 74.5754C62.583 75.1983 63.5309 77.5948 64.492 76.5839C66.6319 74.3405 64.3194 71.6167 64.0114 69.2413C63.8362 67.9084 64.1522 65.9263 63.6557 64.7095C63.2203 63.6406 62.2273 63.5852 61.6087 62.8409C61.1653 62.3077 60.6847 58.9875 59.5643 59.2778ZM14.8199 60.2675C13.3119 61.1016 13.6592 64.3981 13.6597 65.7758C13.6597 66.016 13.5219 67.8794 14.0011 67.7395C15.541 67.2935 15.2705 62.9597 15.2665 61.7746C15.266 61.5685 15.3523 59.9743 14.8199 60.2673V60.2675ZM14.9991 68.4416C11.76 72.3478 12.6261 80.3291 14.1065 84.7078C14.5401 85.9905 15.8788 91.3774 18.2608 89.6143C18.9777 89.0838 17.2559 85.175 17.0305 84.4412C15.3894 79.1095 14.9991 74.0499 14.9991 68.4413V68.4416ZM82.5008 89.5087C84.585 90.3797 86.9187 89.1181 88.8383 89.3557C93.8642 89.9786 99.068 89.7753 104.197 89.7753C105.244 89.7753 110.299 90.3929 110.769 89.3029C111.138 88.4477 107.946 86.067 107.296 85.6447C105.929 84.7579 104.259 84.3699 102.857 83.4013C100.977 82.1001 99.8406 79.8593 98.1467 78.5819C97.6104 78.1781 96.8352 78.3523 96.2909 77.9564C95.2873 77.2306 95.9404 74.2639 94.1005 74.6757C93.2217 74.8736 93.5031 76.3305 93.458 76.9745C93.2934 79.3605 92.8473 81.8415 91.5756 83.9081C91.334 84.2987 89.7596 85.9747 90.2428 86.4154C90.949 87.0568 94.597 87.2231 95.6245 87.3287C95.9829 87.3656 97.098 87.1809 97.2679 87.6111C97.5573 88.3448 96.8086 89.1049 96.1342 88.9862C93.8642 88.5903 92.0721 86.7638 89.4994 87.0806C87.1046 87.3788 85.0656 89.3002 82.5008 89.5087ZM16.3383 79.3763C17.0738 82.5673 17.9635 86.1779 19.3422 89.1577C19.686 89.8994 21.3754 90.0815 21.9558 89.5008C22.5701 88.8885 21.9473 87.2416 21.6011 86.616C20.9286 85.4046 19.6196 84.5046 18.7918 83.3749C17.8671 82.1133 17.3416 80.5482 16.3383 79.3763ZM11.5617 80.8412C8.18987 82.5198 12.1952 86.4075 11.429 88.3527C11.2994 88.6826 10.6099 87.0119 10.5361 86.843C10.0194 85.6474 9.50941 82.5752 8.16996 85.2409C7.73853 86.1013 8.44741 89.3979 9.37533 89.7304C10.6311 90.1818 11.2314 88.9756 11.7415 88.9756C12.226 88.9756 13.5562 90.6806 14.5988 89.6407C15.1563 89.0864 14.4695 87.8856 14.2414 87.3762C13.5034 85.7447 12.9206 84.0481 12.5005 82.3086C12.4132 81.923 12.2366 80.5057 11.5617 80.8409V80.8412ZM6.70041 86.6662C5.70452 87.1729 6.48802 90.4457 7.84924 89.609C8.5167 89.1997 7.20433 86.4099 6.70041 86.6659V86.6662ZM23.0528 87.487C21.7171 88.2946 24.1148 90.4431 25.5506 89.6143C26.8704 88.8539 23.6974 87.0988 23.0528 87.4867V87.487ZM5.00414 87.6295C2.91015 87.7219 2.01223 90.0234 4.80476 89.7595C5.99048 89.6483 5.99447 87.5844 5.00309 87.6293L5.00414 87.6295ZM0 89.5087C1.16554 90.1765 2.01435 89.1366 0 89.5087V89.5087Z" fill="#202020"/>
</svg>
