<svg width="18" height="18" viewBox="0 0 18 18" fill="none" xmlns="http://www.w3.org/2000/svg">
<path d="M8.47273 0.95C8.33466 0.95 8.22273 1.06193 8.22273 1.2V8.22273H1.2C1.06193 8.22273 0.95 8.33466 0.95 8.47273V9.52727C0.95 9.66534 1.06193 9.77727 1.2 9.77727H8.22273V16.8C8.22273 16.9381 8.33466 17.05 8.47273 17.05H9.52727C9.66534 17.05 9.77727 16.9381 9.77727 16.8V9.77727H16.8C16.9381 9.77727 17.05 9.66534 17.05 9.52727V8.47273C17.05 8.33466 16.9381 8.22273 16.8 8.22273H9.77727V1.2C9.77727 1.06193 9.66534 0.95 9.52727 0.95H8.47273Z" fill="black" stroke="black" stroke-width="0.1"/>
</svg>
