<svg width="15" height="15" viewBox="0 0 15 15" fill="none" xmlns="http://www.w3.org/2000/svg">
<path d="M7.20909 0.95C7.01579 0.95 6.85909 1.1067 6.85909 1.3V6.85909H1.3C1.1067 6.85909 0.95 7.01579 0.95 7.20909V7.79091C0.95 7.98421 1.1067 8.14091 1.3 8.14091H6.85909V13.7C6.85909 13.8933 7.01579 14.05 7.20909 14.05H7.79091C7.98421 14.05 8.14091 13.8933 8.14091 13.7V8.14091H13.7C13.8933 8.14091 14.05 7.98421 14.05 7.79091V7.20909C14.05 7.01579 13.8933 6.85909 13.7 6.85909H8.14091V1.3C8.14091 1.1067 7.98421 0.95 7.79091 0.95H7.20909Z" fill="white" stroke="white" stroke-width="0.1"/>
</svg>
