<?xml version="1.0" encoding="UTF-8"?>
<svg xmlns="http://www.w3.org/2000/svg" xmlns:xlink="http://www.w3.org/1999/xlink" width="12px" height="12px" viewBox="0 0 12 12" version="1.1">
<g id="surface1">
<path style=" stroke:none;fill-rule:nonzero;fill:rgb(0%,0%,0%);fill-opacity:1;" d="M 7.070312 6 L 11.921875 1.148438 C 12.027344 1.042969 12.027344 0.875 11.921875 0.769531 L 11.230469 0.078125 C 11.179688 0.0273438 11.109375 0 11.039062 0 C 10.96875 0 10.902344 0.0273438 10.851562 0.078125 L 6 4.929688 L 1.148438 0.078125 C 1.046875 -0.0234375 0.871094 -0.0234375 0.769531 0.078125 L 0.078125 0.769531 C -0.0273438 0.875 -0.0273438 1.042969 0.078125 1.148438 L 4.929688 6 L 0.078125 10.851562 C -0.0273438 10.957031 -0.0273438 11.125 0.078125 11.230469 L 0.769531 11.921875 C 0.820312 11.972656 0.890625 12 0.960938 12 C 1.03125 12 1.097656 11.972656 1.148438 11.921875 L 6 7.070312 L 10.851562 11.921875 C 10.902344 11.972656 10.96875 12 11.039062 12 C 11.113281 12 11.179688 11.972656 11.230469 11.921875 L 11.921875 11.230469 C 12.027344 11.125 12.027344 10.957031 11.921875 10.851562 Z M 7.070312 6 "/>
</g>
</svg>
