<svg width="12" height="12" viewBox="0 0 12 12" fill="none" xmlns="http://www.w3.org/2000/svg">
<path d="M0.0931273 0.66542C-0.0310423 0.78959 -0.0310425 0.990909 0.0931272 1.11508L4.97805 6L0.0931276 10.8849C-0.0310421 11.0091 -0.0310425 11.2104 0.0931272 11.3346L0.665419 11.9069C0.789589 12.031 0.990908 12.031 1.11508 11.9069L6 7.02195L10.8849 11.9069C11.0091 12.031 11.2104 12.031 11.3346 11.9069L11.9069 11.3346C12.031 11.2104 12.031 11.0091 11.9069 10.8849L7.02195 6L11.9069 1.11508C12.031 0.990909 12.031 0.789589 11.9069 0.66542L11.3346 0.0931273C11.2104 -0.0310423 11.0091 -0.0310425 10.8849 0.0931272L6 4.97805L1.11508 0.093128C0.990909 -0.0310416 0.789589 -0.0310421 0.66542 0.0931276L0.0931273 0.66542Z" fill="white"/>
</svg>
