<svg width="14" height="14" viewBox="0 0 14 14" fill="none" xmlns="http://www.w3.org/2000/svg">
<path d="M0.984732 1.32386C0.867575 1.44102 0.867575 1.63097 0.984732 1.74813L6.23661 7L0.984732 12.2519C0.867575 12.369 0.867575 12.559 0.984732 12.6761L1.65327 13.3447C1.77043 13.4618 1.96038 13.4618 2.07753 13.3447L7.32941 8.0928L12.5813 13.3447C12.6984 13.4618 12.8884 13.4618 13.0055 13.3447L13.6741 12.6761C13.7912 12.559 13.7912 12.369 13.6741 12.2519L8.42221 7L13.6741 1.74813C13.7912 1.63097 13.7912 1.44102 13.6741 1.32386L13.0055 0.655323C12.8884 0.538166 12.6984 0.538167 12.5813 0.655324L7.32941 5.9072L2.07753 0.655324C1.96038 0.538167 1.77043 0.538167 1.65327 0.655324L0.984732 1.32386Z" fill="black"/>
</svg>
