<svg width="1093" height="153" viewBox="0 0 1093 153" fill="none" xmlns="http://www.w3.org/2000/svg">
<path d="M1090.82 152.177C1090.92 152.274 1091.08 152.274 1091.18 152.177L1092.77 150.586C1092.87 150.488 1092.87 150.33 1092.77 150.232C1092.67 150.135 1092.51 150.135 1092.41 150.232L1091 151.646L1089.59 150.232C1089.49 150.135 1089.33 150.135 1089.23 150.232C1089.13 150.33 1089.13 150.488 1089.23 150.586L1090.82 152.177ZM0.823223 1.82322C0.725592 1.92085 0.725592 2.07915 0.823223 2.17678L2.41421 3.76777C2.51184 3.8654 2.67014 3.8654 2.76777 3.76777C2.8654 3.67014 2.8654 3.51184 2.76777 3.41421L1.35355 2L2.76777 0.585786C2.8654 0.488155 2.8654 0.329864 2.76777 0.232233C2.67014 0.134602 2.51184 0.134602 2.41421 0.232233L0.823223 1.82322ZM1090.75 9V152H1091.25V9H1090.75ZM1084 1.75H1V2.25H1084V1.75ZM1091.25 9C1091.25 4.99594 1088 1.75 1084 1.75V2.25C1087.73 2.25 1090.75 5.27208 1090.75 9H1091.25Z" fill="black"/>
</svg>
