<svg width="1284" height="272" viewBox="0 0 1284 272" fill="none" xmlns="http://www.w3.org/2000/svg">
<path d="M1282.18 0.823223C1282.08 0.725592 1281.92 0.725592 1281.82 0.823223L1280.23 2.41421C1280.13 2.51184 1280.13 2.67014 1280.23 2.76777C1280.33 2.8654 1280.49 2.8654 1280.59 2.76777L1282 1.35355L1283.41 2.76777C1283.51 2.8654 1283.67 2.8654 1283.77 2.76777C1283.87 2.67014 1283.87 2.51184 1283.77 2.41421L1282.18 0.823223ZM1.82323 271.177C1.92089 271.274 2.07909 271.274 2.17675 271.177L3.76781 269.586C3.86534 269.488 3.86534 269.33 3.76781 269.232C3.67015 269.135 3.51183 269.135 3.41417 269.232L1.99999 270.646L0.585804 269.232C0.488147 269.135 0.329822 269.135 0.232166 269.232C0.134632 269.33 0.134632 269.488 0.232166 269.586L1.82323 271.177ZM1275 120.742L8.99999 120.742L8.99999 121.242L1275 121.242L1275 120.742ZM1282.25 113.992L1282.25 1L1281.75 1L1281.75 113.992L1282.25 113.992ZM2.24999 271L2.24999 127.992L1.74999 127.992L1.74999 271L2.24999 271ZM8.99999 120.742C4.99584 120.742 1.74999 123.988 1.74999 127.992L2.24999 127.992C2.24999 124.264 5.27209 121.242 8.99999 121.242L8.99999 120.742ZM1275 121.242C1279 121.242 1282.25 117.997 1282.25 113.992L1281.75 113.992C1281.75 117.72 1278.73 120.742 1275 120.742L1275 121.242Z" fill="black"/>
</svg>
