<svg width="732" height="202" viewBox="0 0 732 202" fill="none" xmlns="http://www.w3.org/2000/svg">
<path d="M2.17676 201.177C2.0791 201.274 1.92084 201.274 1.82318 201.177L0.232178 199.586C0.134583 199.488 0.134583 199.33 0.232178 199.232C0.329834 199.135 0.488098 199.135 0.585754 199.232L2 200.646L3.41418 199.232C3.51184 199.135 3.6701 199.135 3.76776 199.232C3.86536 199.33 3.86536 199.488 3.76776 199.586L2.17676 201.177ZM2.25 8V201H1.75V8H2.25ZM9 0.75H732V1.25H9V0.75ZM1.75 8C1.75 3.99594 4.99591 0.75 9 0.75V1.25C5.27203 1.25 2.25 4.27208 2.25 8H1.75Z" fill="black"/>
</svg>
